HIERARCHY
ROOT hip
{
  OFFSET 0 0 0
  CHANNELS 6 Xposition Yposition Zposition Zrotation Yrotation Xrotation
  JOINT abdomen
  {
    OFFSET 0 20.6881 -0.73152
    CHANNELS 3 Zrotation Xrotation Yrotation
    JOINT chest
    {
      OFFSET 0 11.7043 -0.48768
      CHANNELS 3 Zrotation Xrotation Yrotation
      JOINT neck
      {
        OFFSET 0 22.1894 -2.19456
        CHANNELS 3 Zrotation Xrotation Yrotation
        JOINT head
        {
          OFFSET -0.24384 7.07133 1.2192
          CHANNELS 3 Zrotation Xrotation Yrotation
          JOINT leftEye
          {
            OFFSET 4.14528 8.04674 8.04672
            CHANNELS 3 Zrotation Xrotation Yrotation
            End Site
            {
              OFFSET 1 0 0
            }
          }
          JOINT rightEye
          {
            OFFSET -3.6576 8.04674 8.04672
            CHANNELS 3 Zrotation Xrotation Yrotation
            End Site
            {
              OFFSET 1 0 0
            }
          }
        }
      }
      JOINT rCollar
      {
        OFFSET -2.68224 19.2634 -4.8768
        CHANNELS 3 Zrotation Xrotation Yrotation
        JOINT rShldr
        {
          OFFSET -8.77824 -1.95073 1.46304
          CHANNELS 3 Zrotation Xrotation Yrotation
          JOINT rForeArm
          {
            OFFSET -28.1742 -1.7115 0.48768
            CHANNELS 3 Zrotation Xrotation Yrotation
            JOINT rHand
            {
              OFFSET -22.5879 0.773209 7.07136
              CHANNELS 3 Zrotation Xrotation Yrotation
              JOINT rThumb1
              {
                OFFSET -1.2192 -0.487915 3.41376
                CHANNELS 3 Zrotation Xrotation Yrotation
                JOINT rThumb2
                {
                  OFFSET -3.37035 -0.52449 3.41376
                  CHANNELS 3 Zrotation Xrotation Yrotation
                  End Site
                  {
                    OFFSET -1.78271 -1.18214 1.43049
                  }
                }
              }
              JOINT rIndex1
              {
                OFFSET -7.75947 0.938293 5.60832
                CHANNELS 3 Zrotation Xrotation Yrotation
                JOINT rIndex2
                {
                  OFFSET -2.54057 -0.884171 1.56538
                  CHANNELS 3 Zrotation Xrotation Yrotation
                  End Site
                  {
                    OFFSET -1.62519 -0.234802 1.16502
                  }
                }
              }
              JOINT rMid1
              {
                OFFSET -8.24714 1.18213 3.41376
                CHANNELS 3 Zrotation Xrotation Yrotation
                JOINT rMid2
                {
                  OFFSET -3.10165 -0.590103 1.0647
                  CHANNELS 3 Zrotation Xrotation Yrotation
                  End Site
                  {
                    OFFSET -2.48547 -0.328903 0.83742
                  }
                }
              }
              JOINT rRing1
              {
                OFFSET -8.82822 0.546677 1.51678
                CHANNELS 3 Zrotation Xrotation Yrotation
                JOINT rRing2
                {
                  OFFSET -2.60934 -0.819778 -0.0198488
                  CHANNELS 3 Zrotation Xrotation Yrotation
                  End Site
                  {
                    OFFSET -2.33842 -0.294052 0.168128
                  }
                }
              }
              JOINT rPinky1
              {
                OFFSET -8.27202 -0.0477905 -0.4584
                CHANNELS 3 Zrotation Xrotation Yrotation
                JOINT rPinky2
                {
                  OFFSET -1.82734 -0.647385 -0.700984
                  CHANNELS 3 Zrotation Xrotation Yrotation
                  End Site
                  {
                    OFFSET -1.69225 -0.51767 -0.607171
                  }
                }
              }
            }
          }
        }
      }
      JOINT lCollar
      {
        OFFSET 2.68224 19.2634 -4.8768
        CHANNELS 3 Zrotation Xrotation Yrotation
        JOINT lShldr
        {
          OFFSET 8.77824 -1.95073 1.46304
          CHANNELS 3 Zrotation Xrotation Yrotation
          JOINT lForeArm
          {
            OFFSET 28.1742 -1.7115 0.48768
            CHANNELS 3 Zrotation Xrotation Yrotation
            JOINT lHand
            {
              OFFSET 22.5879 0.773209 7.07136
              CHANNELS 3 Zrotation Xrotation Yrotation
              JOINT lThumb1
              {
                OFFSET 1.2192 -0.487915 3.41376
                CHANNELS 3 Zrotation Xrotation Yrotation
                JOINT lThumb2
                {
                  OFFSET 3.37035 -0.52449 3.41376
                  CHANNELS 3 Zrotation Xrotation Yrotation
                  End Site
                  {
                    OFFSET 1.78271 -1.18214 1.43049
                  }
                }
              }
              JOINT lIndex1
              {
                OFFSET 7.75947 0.938293 5.60832
                CHANNELS 3 Zrotation Xrotation Yrotation
                JOINT lIndex2
                {
                  OFFSET 2.54057 -0.884171 1.56538
                  CHANNELS 3 Zrotation Xrotation Yrotation
                  End Site
                  {
                    OFFSET 1.62519 -0.234802 1.16502
                  }
                }
              }
              JOINT lMid1
              {
                OFFSET 8.24714 1.18213 3.41376
                CHANNELS 3 Zrotation Xrotation Yrotation
                JOINT lMid2
                {
                  OFFSET 3.10165 -0.590103 1.0647
                  CHANNELS 3 Zrotation Xrotation Yrotation
                  End Site
                  {
                    OFFSET 2.48547 -0.328903 0.83742
                  }
                }
              }
              JOINT lRing1
              {
                OFFSET 8.82822 0.546677 1.51678
                CHANNELS 3 Zrotation Xrotation Yrotation
                JOINT lRing2
                {
                  OFFSET 2.60934 -0.819778 -0.0198488
                  CHANNELS 3 Zrotation Xrotation Yrotation
                  End Site
                  {
                    OFFSET 2.33842 -0.294052 0.168128
                  }
                }
              }
              JOINT lPinky1
              {
                OFFSET 8.27202 -0.0477905 -0.4584
                CHANNELS 3 Zrotation Xrotation Yrotation
                JOINT lPinky2
                {
                  OFFSET 1.82734 -0.647385 -0.700984
                  CHANNELS 3 Zrotation Xrotation Yrotation
                  End Site
                  {
                    OFFSET 1.69225 -0.51767 -0.607171
                  }
                }
              }
            }
          }
        }
      }
    }
  }
  JOINT rButtock
  {
    OFFSET -8.77824 4.35084 1.2192
    CHANNELS 3 Zrotation Xrotation Yrotation
    JOINT rThigh
    {
      OFFSET 0 -1.70687 -2.19456
      CHANNELS 3 Zrotation Xrotation Yrotation
      JOINT rShin
      {
        OFFSET 0 -36.8199 0.73152
        CHANNELS 3 Zrotation Xrotation Yrotation
        JOINT rFoot
        {
          OFFSET 0.73152 -45.1104 -5.12064
          CHANNELS 3 Zrotation Xrotation Yrotation
          End Site
          {
            OFFSET -1.1221 -3.69964 12.103
          }
        }
      }
    }
  }
  JOINT lButtock
  {
    OFFSET 8.77824 4.35084 1.2192
    CHANNELS 3 Zrotation Xrotation Yrotation
    JOINT lThigh
    {
      OFFSET 0 -1.70687 -2.19456
      CHANNELS 3 Zrotation Xrotation Yrotation
      JOINT lShin
      {
        OFFSET 0 -36.8199 0.73152
        CHANNELS 3 Zrotation Xrotation Yrotation
        JOINT lFoot
        {
          OFFSET -0.73152 -45.1104 -5.12064
          CHANNELS 3 Zrotation Xrotation Yrotation
          End Site
          {
            OFFSET 1.1221 -3.69964 12.103
          }
        }
      }
    }
  }
}
MOTION
Frames:	7
Frame Time:	0.00833333
-33.2671 84.1002 7.54072 0.0 0.0 0.0 -1.51927 -0.00282941 -0.0413936 -0.418701 0.0010262 -0.0725116 1.94418e-14 -7.95139e-16 4.47265e-16 5.84085e-14 3.18055e-15 1.216e-15 -0.0 0.0 0.0 -0.0 0.0 0.0 9.7889e-15 -4.13488e-17 3.47873e-16 2.07985e-13 -1.34801e-15 5.76476e-15 3.53553e-12 -1.09729e-12 3.81667e-14 4.05801e-11 9.02756e-13 8.96916e-13 9.57024e-11 -4.18987e-13 2.0451e-12 1.65278e-10 -7.28347e-13 3.52087e-12 9.57077e-11 -4.17845e-13 2.02919e-12 7.73091 5.47488 0.417314 9.57027e-11 -4.19038e-13 2.0451e-12 2.90554 0.965183 0.102902 9.57087e-11 -4.18641e-13 2.03874e-12 10.2786 0.731801 0.0259123 9.56965e-11 -4.16255e-13 2.0451e-12 2.22167 -0.733487 -0.20892 9.79202e-15 -4.03781e-17 4.96962e-17 2.02826e-13 -1.3418e-15 3.57812e-15 3.55069e-12 1.02752e-12 4.77083e-14 4.05524e-11 -1.2309e-12 8.96916e-13 9.56817e-11 -4.37031e-13 2.04192e-12 1.65247e-10 -7.56972e-13 3.52724e-12 9.56778e-11 -4.35338e-13 2.05146e-12 -7.73091 5.47488 -0.417314 9.56794e-11 -4.36631e-13 2.03874e-12 -2.90554 0.965183 -0.102902 9.56703e-11 -4.36432e-13 2.04192e-12 -10.2786 0.731801 -0.0259123 9.56888e-11 -4.35736e-13 2.03874e-12 -2.22167 -0.733487 0.20892 -2.03217e-16 0.0 -3.88251e-19 -0.640522 -1.92323 -0.00643659 -0.00925478 -2.07856 -0.0764291 -0.51217 3.99733 0.140314 2.03217e-16 0.0 3.88251e-19 -1.66972 -6.49783 0.154696 -0.0023107 6.208 -0.0679842 0.534029 0.285487 -0.0665661
-33.1911 81.9414 2.04804 -114.548 85.4156 -98.3373 -0.752075 1.1498 0.722249 0.993877 0.809079 0.156038 0.433596 -0.266388 -0.427954 -1.27761 7.45291 0.207103 -0.0 0.0 0.0 -0.0 0.0 0.0 -3.15363e-14 -9.90864e-13 1.76883e-14 24.5874 10.2065 8.51284 -2.65883 -1.00658 4.34605 0.157633 -8.82676 -1.18802 2.674e-10 -1.37319e-11 7.2774e-11 4.59309e-10 -2.30156e-11 1.30592e-10 2.67406e-10 -1.37309e-11 7.27578e-11 7.73091 5.47488 0.417314 2.67401e-10 -1.3732e-11 7.2776e-11 2.90554 0.965183 0.102902 2.67406e-10 -1.37317e-11 7.27695e-11 10.2786 0.731801 0.0259123 2.67395e-10 -1.37292e-11 7.2774e-11 2.22167 -0.733487 -0.20892 -3.15368e-14 -9.90866e-13 1.73742e-14 -25.5326 20.417 -9.00664 3.08057 -1.23061 -4.97958 -0.258946 -11.3299 1.48221 2.67018e-10 2.54523e-10 -3.84273e-10 4.73175e-10 4.40427e-10 -6.5769e-10 2.67015e-10 2.54525e-10 -3.84264e-10 -7.73091 5.47488 -0.417314 2.67017e-10 2.54524e-10 -3.84274e-10 -2.90554 0.965183 -0.102902 2.67008e-10 2.54524e-10 -3.84273e-10 -10.2786 0.731801 -0.0259123 2.67024e-10 2.54526e-10 -3.84276e-10 -2.22167 -0.733487 0.20892 -2.03217e-16 0.0 -3.88251e-19 -2.71171 -10.1309 -0.667327 -0.00653656 5.74298 0.043022 -0.617449 1.76575 -2.88371 2.03217e-16 0.0 3.88251e-19 2.84707 -13.772 1.82687 -0.0248183 12.503 -0.194209 0.354344 -1.95136 -0.198091
-33.1895 81.9424 2.05007 -114.63 85.4001 -98.4266 0.0166719 2.36847 1.52797 2.48207 1.66275 0.396857 0.887869 -0.546323 -0.880221 -2.68831 15.3341 0.438899 -0.0 0.0 0.0 -0.0 0.0 0.0 -7.76439e-14 -2.08656e-12 3.60204e-14 47.1404 20.2295 18.4055 -5.30242 -2.0505 8.94203 -0.0925499 -18.1409 -2.54086 4.77574e-10 -4.82226e-11 1.24021e-10 8.20025e-10 -8.16091e-11 2.25103e-10 4.77579e-10 -4.82217e-11 1.24005e-10 7.73091 5.47488 0.417314 4.77575e-10 -4.82226e-11 1.24026e-10 2.90554 0.965183 0.102902 4.77579e-10 -4.82225e-11 1.24019e-10 10.2786 0.731801 0.0259123 4.7757e-10 -4.82198e-11 1.24021e-10 2.22167 -0.733487 -0.20892 -7.76462e-14 -2.08657e-12 3.56881e-14 -43.7574 40.1316 -22.964 6.10579 -2.5007 -10.2514 0.155916 -23.2867 3.25572 4.51989e-10 5.26673e-10 -7.96126e-10 8.05578e-10 9.11832e-10 -1.36267e-09 4.51987e-10 5.26674e-10 -7.96117e-10 -7.73091 5.47488 -0.417314 4.51989e-10 5.26674e-10 -7.96124e-10 -2.90554 0.965183 -0.102902 4.51979e-10 5.26675e-10 -7.96125e-10 -10.2786 0.731801 -0.0259123 4.51994e-10 5.26677e-10 -7.96128e-10 -2.22167 -0.733487 0.20892 -2.03217e-16 0.0 -3.88251e-19 -5.12543 -18.8039 -1.42238 -0.0398573 14.0152 0.174036 -0.984401 -0.585564 -6.07757 2.03217e-16 0.0 3.88251e-19 8.10799 -21.4314 3.74486 -0.0166429 19.1545 -0.337208 0.153633 -4.31512 -0.334104
-33.1848 81.9436 2.05918 -114.267 85.3732 -98.082 0.690022 3.45266 2.25319 3.79968 2.42505 0.613639 1.28885 -0.798985 -1.28397 -4.00563 22.3575 0.666137 -0.0 0.0 0.0 -0.0 0.0 0.0 -1.14187e-13 -2.97251e-12 5.23693e-14 64.03 27.7523 28.6788 -7.52225 -2.95034 13.0537 -0.733316 -26.432 -3.93359 6.10796e-10 -4.03578e-11 2.14232e-10 1.04737e-09 -6.75901e-11 3.84733e-10 6.10802e-10 -4.03571e-11 2.14215e-10 7.73091 5.47488 0.417314 6.10797e-10 -4.03578e-11 2.14238e-10 2.90554 0.965183 0.102902 6.10801e-10 -4.03579e-11 2.14231e-10 10.2786 0.731801 0.0259123 6.10793e-10 -4.0355e-11 2.14232e-10 2.22167 -0.733487 -0.20892 -1.14194e-13 -2.97252e-12 5.20233e-14 -47.3494 52.9237 -45.1631 8.60703 -3.58046 -14.9652 1.2849 -33.889 5.25448 6.09691e-10 7.64443e-10 -1.1569e-09 1.08903e-09 1.3228e-09 -1.98012e-09 6.0969e-10 7.64445e-10 -1.15689e-09 -7.73091 5.47488 -0.417314 6.09692e-10 7.64445e-10 -1.1569e-09 -2.90554 0.965183 -0.102902 6.09682e-10 7.64446e-10 -1.1569e-09 -10.2786 0.731801 -0.0259123 6.09695e-10 7.64448e-10 -1.1569e-09 -2.22167 -0.733487 0.20892 -2.03217e-16 0.0 -3.88251e-19 -7.48031 -26.5316 -2.18847 -0.103841 21.3858 0.301967 -1.5322 -2.6581 -8.93665 2.03217e-16 0.0 3.88251e-19 13.3103 -28.2221 5.69438 0.0218021 25.0925 -0.478829 -0.0360155 -6.42489 -0.463709
-33.1778 81.9454 2.06181 -113.979 85.3733 -97.8204 1.18967 4.20292 2.77365 4.70435 2.95909 0.769847 1.5649 -0.983632 -1.56633 -4.96249 27.2374 0.839057 -0.0 0.0 0.0 -0.0 0.0 0.0 -1.26818e-13 -3.33406e-12 6.37602e-14 73.9629 31.7744 36.8258 -9.00044 -3.55574 15.94 -1.46753 -32.2105 -5.07957 5.51642e-10 7.33954e-11 4.0185e-10 9.41293e-10 1.2796e-10 7.07164e-10 5.51647e-10 7.33961e-11 4.01834e-10 7.73091 5.47488 0.417314 5.51643e-10 7.33955e-11 4.01857e-10 2.90554 0.965183 0.102902 5.51646e-10 7.33953e-11 4.0185e-10 10.2786 0.731801 0.0259123 5.51639e-10 7.33981e-11 4.0185e-10 2.22167 -0.733487 -0.20892 -1.26839e-13 -3.33407e-12 6.34123e-14 -41.6428 56.235 -67.3254 10.2433 -4.29051 -18.2585 2.65909 -41.1987 7.06692 6.99219e-10 9.16264e-10 -1.38999e-09 1.25012e-09 1.58266e-09 -2.37873e-09 6.9922e-10 9.16266e-10 -1.38998e-09 -7.73091 5.47488 -0.417314 6.99222e-10 9.16267e-10 -1.38999e-09 -2.90554 0.965183 -0.102902 6.99212e-10 9.16267e-10 -1.38999e-09 -10.2786 0.731801 -0.0259123 6.99223e-10 9.1627e-10 -1.38999e-09 -2.22167 -0.733487 0.20892 -2.03217e-16 0.0 -3.88251e-19 -9.2246 -31.91 -2.79711 -0.170205 26.5026 0.401349 -2.03626 -4.07973 -10.9418 2.03217e-16 0.0 3.88251e-19 17.3134 -32.9291 7.26431 0.0687937 29.2477 -0.589269 -0.177509 -7.89984 -0.575038
-33.1757 81.9462 2.06999 -113.931 85.3339 -97.779 1.49669 4.48277 3.00828 5.03355 3.17447 0.842284 1.66883 -1.0736 -1.68076 -5.34784 29.1124 0.897003 -0.0 0.0 0.0 -0.0 0.0 0.0 -1.00853e-13 -2.88001e-12 6.96053e-14 77.4761 33.0061 40.2154 -9.57991 -3.79574 17.105 -1.83697 -34.5051 -5.58971 1.33178e-10 4.11231e-10 8.23804e-10 2.11274e-10 7.07791e-10 1.42409e-09 1.33183e-10 4.11232e-10 8.23792e-10 7.73091 5.47488 0.417314 1.33179e-10 4.11232e-10 8.23809e-10 2.90554 0.965183 0.102902 1.33183e-10 4.11231e-10 8.23805e-10 10.2786 0.731801 0.0259123 1.33175e-10 4.11234e-10 8.23805e-10 2.22167 -0.733487 -0.20892 -1.00907e-13 -2.88002e-12 6.92753e-14 -38.723 55.8895 -76.34 10.8596 -4.55646 -19.5477 3.36605 -44.0019 7.90793 7.02933e-10 9.63317e-10 -1.46804e-09 1.25671e-09 1.65602e-09 -2.5112e-09 7.02934e-10 9.63318e-10 -1.46803e-09 -7.73091 5.47488 -0.417314 7.02936e-10 9.63321e-10 -1.46804e-09 -2.90554 0.965183 -0.102902 7.02927e-10 9.6332e-10 -1.46804e-09 -10.2786 0.731801 -0.0259123 7.02936e-10 9.63323e-10 -1.46804e-09 -2.22167 -0.733487 0.20892 -2.03217e-16 0.0 -3.88251e-19 -9.83753 -34.0115 -3.03444 -0.20129 28.4564 0.442421 -2.25962 -4.62499 -11.7308 2.03217e-16 0.0 3.88251e-19 19.0892 -34.7915 7.96816 0.0925319 30.9133 -0.63678 -0.243312 -8.48546 -0.665852
-33.1785 81.9447 2.08552 -113.289 85.2031 -97.1236 1.67207 4.42731 3.03786 4.95335 3.16223 0.854713 1.65076 -1.09596 -1.67511 -5.30807 28.8414 0.862623 -0.0 0.0 0.0 -0.0 0.0 0.0 -4.75617e-14 -1.84728e-12 7.14227e-14 77.1163 32.8819 39.825 -9.54903 -3.78808 17.0377 -1.80253 -34.3237 -5.5467 -5.37651e-10 9.05515e-10 1.40848e-09 -9.56934e-10 1.55591e-09 2.41485e-09 -5.37646e-10 9.05516e-10 1.40847e-09 7.73091 5.47488 0.417314 -5.3765e-10 9.05516e-10 1.40848e-09 2.90554 0.965183 0.102902 -5.37644e-10 9.05515e-10 1.40848e-09 10.2786 0.731801 0.0259123 -5.37655e-10 9.05517e-10 1.40848e-09 2.22167 -0.733487 -0.20892 -4.76623e-14 -1.84728e-12 7.11245e-14 -38.9353 55.9973 -75.4739 10.7901 -4.52622 -19.4012 3.26715 -43.6164 7.78901 6.44892e-10 9.34795e-10 -1.43423e-09 1.15214e-09 1.59498e-09 -2.45165e-09 6.44893e-10 9.34795e-10 -1.43422e-09 -7.73091 5.47488 -0.417314 6.44896e-10 9.34801e-10 -1.43422e-09 -2.90554 0.965183 -0.102902 6.44887e-10 9.34798e-10 -1.43422e-09 -10.2786 0.731801 -0.0259123 6.44895e-10 9.348e-10 -1.43423e-09 -2.22167 -0.733487 0.20892 -2.03217e-16 0.0 -3.88251e-19 -9.5734 -33.7756 -2.95886 -0.196936 28.1513 0.435904 -2.23193 -4.55619 -11.6447 2.03217e-16 0.0 3.88251e-19 19.1125 -34.6428 7.94476 0.0901589 30.8005 -0.633294 -0.251955 -8.43593 -0.741106
